<?xml version="1.0" encoding="utf-8"?>
<!-- Generator: Adobe Illustrator 15.0.0, SVG Export Plug-In . SVG Version: 6.00 Build 0)  -->
<!DOCTYPE svg PUBLIC "-//W3C//DTD SVG 1.1//EN" "http://www.w3.org/Graphics/SVG/1.1/DTD/svg11.dtd">
<svg version="1.1" id="Слой_1" xmlns="http://www.w3.org/2000/svg" xmlns:xlink="http://www.w3.org/1999/xlink" x="0px" y="0px"
	 width="179px" height="113.25px" viewBox="0 0 179 113.25" enable-background="new 0 0 179 113.25" xml:space="preserve">
<ellipse opacity="0.7" cx="141.719" cy="934.75" rx="35.5" ry="4.167"/>
<ellipse opacity="0.7" cx="40.781" cy="934.75" rx="39" ry="4.167"/>
<path fill="#F7E64E" stroke="#000000" stroke-width="3" stroke-miterlimit="10" d="M79.781,921.771c0,2.198-1.788,3.979-3.994,3.979
	H5.775c-2.206,0-3.994-1.781-3.994-3.979V831.73c0-2.198,1.788-3.979,3.994-3.979h70.012c2.206,0,3.994,1.781,3.994,3.979V921.771z"
	/>
<rect x="1.781" y="840.917" fill="#C0C9E6" stroke="#000000" stroke-width="3" stroke-miterlimit="10" width="78" height="61"/>
<line fill="none" stroke="#000000" stroke-width="3" stroke-miterlimit="10" x1="1.781" y1="840.917" x2="79.781" y2="840.917"/>
<line fill="none" stroke="#000000" stroke-width="3" stroke-miterlimit="10" x1="1.781" y1="901.917" x2="79.781" y2="901.917"/>
<line fill="none" stroke="#000000" stroke-width="3" stroke-miterlimit="10" x1="40.781" y1="840.917" x2="40.781" y2="901.917"/>
<line fill="none" stroke="#000000" stroke-width="3" stroke-miterlimit="10" x1="6.553" y1="895.25" x2="35.553" y2="895.25"/>
<line fill="none" stroke="#000000" stroke-width="3" stroke-miterlimit="10" x1="10.219" y1="901.917" x2="21.053" y2="895.25"/>
<line fill="none" stroke="#000000" stroke-width="3" stroke-miterlimit="10" x1="75.094" y1="895.25" x2="46.094" y2="895.25"/>
<line fill="none" stroke="#000000" stroke-width="3" stroke-miterlimit="10" x1="71.428" y1="901.917" x2="60.594" y2="895.25"/>
<path fill="#FBF6C5" stroke="#000000" stroke-width="3" stroke-miterlimit="10" d="M25.469,915.5c0,2.209-1.791,4-4,4h-9
	c-2.209,0-4-1.791-4-4v-2.334c0-2.209,1.791-4,4-4h9c2.209,0,4,1.791,4,4V915.5z"/>
<path fill="#FBF6C5" stroke="#000000" stroke-width="3" stroke-miterlimit="10" d="M73.135,915.5c0,2.209-1.791,4-4,4h-9
	c-2.209,0-4-1.791-4-4v-2.334c0-2.209,1.791-4,4-4h9c2.209,0,4,1.791,4,4V915.5z"/>
<path fill="#1C1C1C" stroke="#000000" stroke-width="3" stroke-miterlimit="10" d="M10.635,933.167c-2.209,0-4-1.791-4-4v-3.416
	h10.334v3.416c0,2.209-1.791,4-4,4H10.635z"/>
<path fill="#1C1C1C" stroke="#000000" stroke-width="3" stroke-miterlimit="10" d="M68.635,933.167c-2.209,0-4-1.791-4-4v-3.416
	h10.334v3.416c0,2.209-1.791,4-4,4H68.635z"/>
<path fill="#F7E64E" stroke="#000000" stroke-width="3" stroke-miterlimit="10" d="M177.219,922.333c0,2.209-1.791,4-4,4h-63
	c-2.209,0-4-1.791-4-4v-78.5c0-2.209,1.791-4,4-4h63c2.209,0,4,1.791,4,4V922.333z"/>
<path fill="#C0C9E6" stroke="#000000" stroke-width="3" stroke-miterlimit="10" d="M172.553,898.5c0,2.209-1.791,4-4,4h-53.334
	c-2.209,0-4-1.791-4-4v-37.833c0-2.209,1.791-4,4-4h53.334c2.209,0,4,1.791,4,4V898.5z"/>
<path fill="#FBF6C5" stroke="#000000" stroke-width="3" stroke-miterlimit="10" d="M157.385,848.167
	c0,1.842-1.492,3.334-3.333,3.334h-24.333c-1.841,0-3.334-1.492-3.334-3.334l0,0c0-1.841,1.493-3.333,3.334-3.333h24.333
	C155.893,844.833,157.385,846.326,157.385,848.167L157.385,848.167z"/>
<circle fill="#FBF6C5" stroke="#000000" stroke-width="3" stroke-miterlimit="10" cx="117.969" cy="914.917" r="5.084"/>
<circle fill="#FBF6C5" stroke="#000000" stroke-width="3" stroke-miterlimit="10" cx="165.703" cy="914.996" r="5.083"/>
<path fill="#1C1C1C" stroke="#000000" stroke-width="3" stroke-miterlimit="10" d="M111.219,926.333v3.001c0,2.209,1.791,4,4,4
	h2.166c2.209,0,4-1.791,4-4v-3.001H111.219z"/>
<path fill="#1C1C1C" stroke="#000000" stroke-width="3" stroke-miterlimit="10" d="M162.219,926.333v3.001c0,2.209,1.791,4,4,4
	h2.166c2.209,0,4-1.791,4-4v-3.001H162.219z"/>
<line fill="none" stroke="#000000" stroke-width="3" stroke-miterlimit="10" x1="141.885" y1="856.667" x2="141.885" y2="902.5"/>
<line fill="none" stroke="#000000" stroke-width="3" stroke-miterlimit="10" x1="128.178" y1="911.208" x2="155.428" y2="911.208"/>
<line fill="none" stroke="#000000" stroke-width="3" stroke-miterlimit="10" x1="128.178" y1="918.083" x2="155.428" y2="918.083"/>
<line fill="none" stroke="#000000" stroke-width="3" stroke-linecap="round" stroke-miterlimit="10" x1="140.094" y1="827.75" x2="128.011" y2="839.833"/>
<line fill="none" stroke="#000000" stroke-width="3" stroke-linecap="round" stroke-miterlimit="10" x1="162.261" y1="827.75" x2="150.178" y2="839.833"/>
<line fill="none" stroke="#000000" stroke-width="3" stroke-linecap="round" stroke-miterlimit="10" x1="140.094" y1="827.75" x2="134.053" y2="827.75"/>
<line fill="none" stroke="#000000" stroke-width="3" stroke-linecap="round" stroke-miterlimit="10" x1="162.094" y1="827.75" x2="156.053" y2="827.75"/>
<polyline opacity="0.14" fill="#FFFFFF" points="3.266,842.5 3.266,899.278 35.303,842.5 "/>
<polyline opacity="0.14" fill="#FFFFFF" points="42.266,842.5 42.266,899.278 74.303,842.5 "/>
<polyline opacity="0.14" fill="#FFFFFF" points="112.719,858.172 112.719,898.663 135.706,858.172 "/>
<polyline opacity="0.14" fill="#FFFFFF" points="143.391,858.172 143.391,898.663 166.378,858.172 "/>
<path fill="none" stroke="#000000" stroke-width="3" stroke-miterlimit="10" d="M172.553,898.5c0,2.209-1.791,4-4,4h-53.334
	c-2.209,0-4-1.791-4-4v-37.833c0-2.209,1.791-4,4-4h53.334c2.209,0,4,1.791,4,4V898.5z"/>
<ellipse opacity="0.7" cx="141.719" cy="108.75" rx="35.5" ry="4.167"/>
<ellipse opacity="0.7" cx="40.781" cy="108.75" rx="39" ry="4.167"/>
<path fill="#F7E64E" stroke="#000000" stroke-width="3" stroke-miterlimit="10" d="M79.781,95.771c0,2.198-1.788,3.979-3.994,3.979
	H5.775c-2.206,0-3.994-1.781-3.994-3.979V5.73c0-2.198,1.788-3.979,3.994-3.979h70.012c2.206,0,3.994,1.781,3.994,3.979V95.771z"/>
<rect x="1.781" y="14.917" fill="#C0C9E6" stroke="#000000" stroke-width="3" stroke-miterlimit="10" width="78" height="61"/>
<line fill="none" stroke="#000000" stroke-width="3" stroke-miterlimit="10" x1="1.781" y1="14.917" x2="79.781" y2="14.917"/>
<line fill="none" stroke="#000000" stroke-width="3" stroke-miterlimit="10" x1="1.781" y1="75.917" x2="79.781" y2="75.917"/>
<line fill="none" stroke="#000000" stroke-width="3" stroke-miterlimit="10" x1="40.781" y1="14.917" x2="40.781" y2="75.917"/>
<line fill="none" stroke="#000000" stroke-width="3" stroke-miterlimit="10" x1="6.553" y1="69.25" x2="35.553" y2="69.25"/>
<line fill="none" stroke="#000000" stroke-width="3" stroke-miterlimit="10" x1="10.219" y1="75.917" x2="21.053" y2="69.25"/>
<line fill="none" stroke="#000000" stroke-width="3" stroke-miterlimit="10" x1="75.094" y1="69.25" x2="46.094" y2="69.25"/>
<line fill="none" stroke="#000000" stroke-width="3" stroke-miterlimit="10" x1="71.428" y1="75.917" x2="60.594" y2="69.25"/>
<path fill="#FBF6C5" stroke="#000000" stroke-width="3" stroke-miterlimit="10" d="M25.469,89.5c0,2.209-1.791,4-4,4h-9
	c-2.209,0-4-1.791-4-4v-2.334c0-2.209,1.791-4,4-4h9c2.209,0,4,1.791,4,4V89.5z"/>
<path fill="#FBF6C5" stroke="#000000" stroke-width="3" stroke-miterlimit="10" d="M73.135,89.5c0,2.209-1.791,4-4,4h-9
	c-2.209,0-4-1.791-4-4v-2.334c0-2.209,1.791-4,4-4h9c2.209,0,4,1.791,4,4V89.5z"/>
<path fill="#1C1C1C" stroke="#000000" stroke-width="3" stroke-miterlimit="10" d="M10.635,107.167c-2.209,0-4-1.791-4-4V99.75
	h10.334v3.416c0,2.209-1.791,4-4,4H10.635z"/>
<path fill="#1C1C1C" stroke="#000000" stroke-width="3" stroke-miterlimit="10" d="M68.635,107.167c-2.209,0-4-1.791-4-4V99.75
	h10.334v3.416c0,2.209-1.791,4-4,4H68.635z"/>
<path fill="#F7E64E" stroke="#000000" stroke-width="3" stroke-miterlimit="10" d="M177.219,96.333c0,2.209-1.791,4-4,4h-63
	c-2.209,0-4-1.791-4-4v-78.5c0-2.209,1.791-4,4-4h63c2.209,0,4,1.791,4,4V96.333z"/>
<path fill="#C0C9E6" stroke="#000000" stroke-width="3" stroke-miterlimit="10" d="M172.553,72.5c0,2.209-1.791,4-4,4h-53.334
	c-2.209,0-4-1.791-4-4V34.667c0-2.209,1.791-4,4-4h53.334c2.209,0,4,1.791,4,4V72.5z"/>
<path fill="#FBF6C5" stroke="#000000" stroke-width="3" stroke-miterlimit="10" d="M157.385,22.167c0,1.842-1.492,3.334-3.333,3.334
	h-24.333c-1.841,0-3.334-1.492-3.334-3.334l0,0c0-1.841,1.493-3.333,3.334-3.333h24.333
	C155.893,18.833,157.385,20.326,157.385,22.167L157.385,22.167z"/>
<circle fill="#FBF6C5" stroke="#000000" stroke-width="3" stroke-miterlimit="10" cx="117.969" cy="88.917" r="5.084"/>
<circle fill="#FBF6C5" stroke="#000000" stroke-width="3" stroke-miterlimit="10" cx="165.703" cy="88.996" r="5.083"/>
<path fill="#1C1C1C" stroke="#000000" stroke-width="3" stroke-miterlimit="10" d="M111.219,100.333v3.001c0,2.209,1.791,4,4,4
	h2.166c2.209,0,4-1.791,4-4v-3.001H111.219z"/>
<path fill="#1C1C1C" stroke="#000000" stroke-width="3" stroke-miterlimit="10" d="M162.219,100.333v3.001c0,2.209,1.791,4,4,4
	h2.166c2.209,0,4-1.791,4-4v-3.001H162.219z"/>
<line fill="none" stroke="#000000" stroke-width="3" stroke-miterlimit="10" x1="141.885" y1="30.667" x2="141.885" y2="76.5"/>
<line fill="none" stroke="#000000" stroke-width="3" stroke-miterlimit="10" x1="128.178" y1="85.208" x2="155.428" y2="85.208"/>
<line fill="none" stroke="#000000" stroke-width="3" stroke-miterlimit="10" x1="128.178" y1="92.083" x2="155.428" y2="92.083"/>
<line fill="none" stroke="#000000" stroke-width="3" stroke-linecap="round" stroke-miterlimit="10" x1="140.094" y1="1.75" x2="128.011" y2="13.833"/>
<line fill="none" stroke="#000000" stroke-width="3" stroke-linecap="round" stroke-miterlimit="10" x1="162.261" y1="1.75" x2="150.178" y2="13.833"/>
<line fill="none" stroke="#000000" stroke-width="3" stroke-linecap="round" stroke-miterlimit="10" x1="140.094" y1="1.75" x2="134.053" y2="1.75"/>
<line fill="none" stroke="#000000" stroke-width="3" stroke-linecap="round" stroke-miterlimit="10" x1="162.094" y1="1.75" x2="156.053" y2="1.75"/>
<polyline opacity="0.14" fill="#FFFFFF" points="3.266,16.5 3.266,73.278 35.303,16.5 "/>
<polyline opacity="0.14" fill="#FFFFFF" points="42.266,16.5 42.266,73.278 74.303,16.5 "/>
<polyline opacity="0.14" fill="#FFFFFF" points="112.719,32.172 112.719,72.663 135.706,32.172 "/>
<polyline opacity="0.14" fill="#FFFFFF" points="143.391,32.172 143.391,72.663 166.378,32.172 "/>
<path fill="none" stroke="#000000" stroke-width="3" stroke-miterlimit="10" d="M172.553,72.5c0,2.209-1.791,4-4,4h-53.334
	c-2.209,0-4-1.791-4-4V34.667c0-2.209,1.791-4,4-4h53.334c2.209,0,4,1.791,4,4V72.5z"/>
</svg>
